<svg width="1600" height="1000" viewBox="0 0 1600 1000" fill="none" xmlns="http://www.w3.org/2000/svg">
  <rect width="1600" height="1000" rx="44" fill="#F4EDE4"/>
  <circle cx="297" cy="257" r="224" fill="#DCE6D6"/>
  <circle cx="1283" cy="204" r="176" fill="#F7D9C8"/>
  <path d="M188 768C367 604 552 557 742 625C889 677 1014 673 1117 613C1230 548 1324 468 1450 486V1000H188V768Z" fill="#E7DACD"/>
  <path d="M269 647C394 542 569 516 693 560C808 600 900 688 1031 709C1179 732 1328 685 1450 561" stroke="#5A7162" stroke-width="20" stroke-linecap="round"/>
  <rect x="624" y="207" width="342" height="490" rx="171" fill="#FFF9F2"/>
  <rect x="678" y="281" width="236" height="18" rx="9" fill="#D8E3D0"/>
  <rect x="678" y="333" width="176" height="18" rx="9" fill="#E6D7CB"/>
  <rect x="678" y="385" width="212" height="18" rx="9" fill="#D8E3D0"/>
  <rect x="678" y="476" width="232" height="138" rx="38" fill="#EDE4D8"/>
  <circle cx="1132" cy="766" r="112" fill="#D8E3D0" fill-opacity="0.85"/>
</svg>
