<svg width="1600" height="1000" viewBox="0 0 1600 1000" fill="none" xmlns="http://www.w3.org/2000/svg">
  <rect width="1600" height="1000" rx="44" fill="#F3EEE7"/>
  <circle cx="1260" cy="238" r="204" fill="#D9E5D4"/>
  <circle cx="319" cy="756" r="182" fill="#EFDACA"/>
  <rect x="340" y="216" width="920" height="566" rx="56" fill="#FFF9F4"/>
  <path d="M522 389C575 330 669 311 748 338C827 365 888 435 974 456C1048 474 1111 466 1171 433" stroke="#58705F" stroke-width="18" stroke-linecap="round"/>
  <path d="M526 492C596 535 708 560 805 546C903 532 983 476 1076 455" stroke="#C7B19B" stroke-width="18" stroke-linecap="round"/>
  <circle cx="593" cy="613" r="52" fill="#D8E3D0"/>
  <circle cx="758" cy="613" r="52" fill="#E7D7CA"/>
  <circle cx="923" cy="613" r="52" fill="#D8E3D0"/>
  <circle cx="1088" cy="613" r="52" fill="#E7D7CA"/>
  <path d="M1320 302C1338 280 1370 270 1393 279C1408 286 1415 301 1413 317C1436 308 1463 314 1474 333C1485 352 1479 381 1459 398C1434 419 1398 417 1367 396C1338 376 1307 347 1320 302Z" fill="#FFF9F4"/>
</svg>
