<svg width="1400" height="1100" viewBox="0 0 1400 1100" fill="none" xmlns="http://www.w3.org/2000/svg">
  <rect width="1400" height="1100" rx="48" fill="#F7F1E8"/>
  <circle cx="264" cy="256" r="190" fill="#D8E3D0"/>
  <circle cx="1148" cy="248" r="150" fill="#F1DCCB"/>
  <circle cx="1145" cy="861" r="194" fill="#DDE7D8"/>
  <path d="M152 798C326 664 484 604 625 618C796 636 888 744 1032 756C1146 765 1248 725 1340 638V1100H152V798Z" fill="#EADCD0"/>
  <rect x="219" y="193" width="962" height="640" rx="68" fill="#FFF9F4"/>
  <rect x="293" y="287" width="300" height="452" rx="42" fill="#F4EDE4"/>
  <rect x="637" y="287" width="470" height="154" rx="42" fill="#D8E3D0"/>
  <rect x="637" y="473" width="470" height="114" rx="42" fill="#F1E1D3"/>
  <rect x="637" y="619" width="470" height="120" rx="42" fill="#F5EFE8"/>
  <circle cx="443" cy="423" r="92" fill="#D8E3D0"/>
  <path d="M385 546C404 510 444 486 489 486C534 486 574 510 593 546V638H385V546Z" fill="#FFF9F4"/>
  <rect x="689" y="334" width="235" height="18" rx="9" fill="#58705F"/>
  <rect x="689" y="374" width="170" height="14" rx="7" fill="#769080"/>
  <rect x="689" y="515" width="217" height="18" rx="9" fill="#6D8575"/>
  <rect x="689" y="553" width="274" height="14" rx="7" fill="#8EA18F"/>
  <rect x="689" y="663" width="188" height="18" rx="9" fill="#58705F"/>
  <rect x="689" y="702" width="244" height="14" rx="7" fill="#769080"/>
  <path d="M1050 279C1083 259 1128 266 1153 295C1178 325 1176 372 1150 402C1124 432 1078 438 1046 415C1015 393 997 351 1011 317C1018 300 1031 289 1050 279Z" fill="#FFF9F4"/>
  <path d="M1074 305C1083 329 1096 347 1117 367" stroke="#D3BCA8" stroke-width="16" stroke-linecap="round"/>
  <path d="M1045 816C1094 779 1172 781 1220 821C1253 848 1268 894 1260 937C1221 953 1188 966 1138 971C1086 976 1044 969 998 948C992 894 1008 844 1045 816Z" fill="#FFF9F4"/>
  <path d="M1044 918C1092 898 1144 897 1210 910" stroke="#D6BDA8" stroke-width="18" stroke-linecap="round"/>
</svg>
