<svg width="900" height="650" viewBox="0 0 900 650" fill="none" xmlns="http://www.w3.org/2000/svg">
  <rect width="900" height="650" rx="36" fill="#F7F0E7"/>
  <circle cx="208" cy="188" r="116" fill="#E9D9C7"/>
  <rect x="240" y="164" width="252" height="352" rx="30" fill="#FFF9F4"/>
  <rect x="286" y="228" width="160" height="12" rx="6" fill="#171717"/>
  <rect x="286" y="270" width="160" height="12" rx="6" fill="#7A7068"/>
  <rect x="286" y="312" width="126" height="12" rx="6" fill="#7A7068"/>
  <circle cx="634" cy="366" r="126" fill="#FFF9F4"/>
  <path d="M612 438C648 420 682 385 688 342C694 298 667 274 635 266C642 307 623 342 590 360C559 378 529 414 536 456C567 460 594 448 612 438Z" fill="#B02C2C"/>
  <path d="M132 530C250 492 362 486 470 502C591 520 687 544 774 532" stroke="#B02C2C" stroke-width="14" stroke-linecap="round"/>
</svg>
