<svg width="900" height="650" viewBox="0 0 900 650" fill="none" xmlns="http://www.w3.org/2000/svg">
  <rect width="900" height="650" rx="36" fill="#F7F0E7"/>
  <circle cx="188" cy="178" r="116" fill="#E9D9C7"/>
  <rect x="176" y="362" width="224" height="176" rx="56" fill="#B02C2C"/>
  <rect x="286" y="306" width="264" height="196" rx="70" fill="#C13B36"/>
  <circle cx="650" cy="226" r="116" fill="#FFF9F4"/>
  <path d="M610 211C610 186 630 166 655 166H696C721 166 741 186 741 211V248C741 273 721 293 696 293H686L654 326V293H655C630 293 610 273 610 248V211Z" fill="#F0E1D0"/>
  <circle cx="656" cy="228" r="14" fill="#B02C2C"/>
  <circle cx="690" cy="228" r="14" fill="#B02C2C"/>
  <path d="M128 566C264 512 432 500 582 532C657 548 719 548 794 532" stroke="#B02C2C" stroke-width="14" stroke-linecap="round"/>
</svg>
