<svg width="900" height="650" viewBox="0 0 900 650" fill="none" xmlns="http://www.w3.org/2000/svg">
  <rect width="900" height="650" rx="36" fill="#F7F0E7"/>
  <circle cx="710" cy="168" r="114" fill="#E9D9C7"/>
  <rect x="150" y="250" width="600" height="240" rx="120" fill="#FFF9F4"/>
  <circle cx="320" cy="320" r="62" fill="#B02C2C"/>
  <circle cx="452" cy="298" r="76" fill="#C13B36"/>
  <circle cx="584" cy="320" r="62" fill="#B02C2C"/>
  <path d="M256 428C277 386 319 360 366 360C413 360 455 386 476 428V490H256V428Z" fill="#EEDFD0"/>
  <path d="M390 428C414 374 466 340 522 340C578 340 630 374 654 428V490H390V428Z" fill="#F1E3D4"/>
  <path d="M196 522C340 478 492 474 634 510" stroke="#171717" stroke-width="14" stroke-linecap="round"/>
</svg>
