<svg width="420" height="420" viewBox="0 0 420 420" fill="none" xmlns="http://www.w3.org/2000/svg">
  <rect width="420" height="420" rx="48" fill="#F8F0E6"/>
  <circle cx="210" cy="214" r="116" fill="#F2E1CF"/>
  <circle cx="212" cy="198" r="68" fill="#F6D7C0"/>
  <path d="M142 185C142 132.548 184.548 90 237 90C289.452 90 332 132.548 332 185V196H142V185Z" fill="#B22E2B"/>
  <path d="M160 176C160 149.49 181.49 128 208 128H236C262.51 128 284 149.49 284 176V244C284 270.51 262.51 292 236 292H208C181.49 292 160 270.51 160 244V176Z" fill="#F6D7C0"/>
  <circle cx="191" cy="198" r="6" fill="#111111"/>
  <circle cx="237" cy="198" r="6" fill="#111111"/>
  <path d="M196 230C208 239 226 239 238 230" stroke="#111111" stroke-width="7" stroke-linecap="round"/>
  <path d="M130 352C145 302 187 270 233 270C279 270 321 302 336 352V382H130V352Z" fill="#EAD9C6"/>
</svg>
