<svg width="420" height="420" viewBox="0 0 420 420" fill="none" xmlns="http://www.w3.org/2000/svg">
  <rect width="420" height="420" rx="48" fill="#F6EEE4"/>
  <circle cx="216" cy="210" r="116" fill="#EEDCCA"/>
  <circle cx="212" cy="198" r="68" fill="#F6D7C0"/>
  <path d="M150 181C150 135.713 186.713 99 232 99C277.287 99 314 135.713 314 181V200H150V181Z" fill="#2B2A2A"/>
  <rect x="184" y="182" width="74" height="30" rx="15" stroke="#B22E2B" stroke-width="6"/>
  <rect x="252" y="182" width="74" height="30" rx="15" stroke="#B22E2B" stroke-width="6"/>
  <path d="M258 197H252" stroke="#B22E2B" stroke-width="6" stroke-linecap="round"/>
  <circle cx="205" cy="197" r="6" fill="#111111"/>
  <circle cx="273" cy="197" r="6" fill="#111111"/>
  <path d="M210 227C221 235 240 235 251 227" stroke="#111111" stroke-width="7" stroke-linecap="round"/>
  <path d="M116 352C132 303 177 270 227 270C277 270 322 303 338 352V384H116V352Z" fill="#2B2A2A"/>
</svg>
