<svg width="420" height="420" viewBox="0 0 420 420" fill="none" xmlns="http://www.w3.org/2000/svg">
  <rect width="420" height="420" rx="48" fill="#F8F0E6"/>
  <circle cx="210" cy="214" r="116" fill="#F2E1CF"/>
  <path d="M144 182C144 141.131 177.131 108 218 108C258.869 108 292 141.131 292 182V212C292 252.869 258.869 286 218 286H214C175.34 286 144 254.66 144 216V182Z" fill="#B22E2B"/>
  <ellipse cx="216" cy="340" rx="118" ry="78" fill="#FFF9F3"/>
  <circle cx="212" cy="196" r="68" fill="#F8DCC6"/>
  <path d="M174 184C174 152.52 199.52 127 231 127C262.48 127 288 152.52 288 184V190H174V184Z" fill="#111111"/>
  <circle cx="189" cy="194" r="6" fill="#111111"/>
  <circle cx="235" cy="194" r="6" fill="#111111"/>
  <path d="M194 225C204 234 221 235 231 226" stroke="#111111" stroke-width="7" stroke-linecap="round"/>
  <path d="M130 350C145 302 187 270 233 270C279 270 321 302 336 350V382H130V350Z" fill="#B22E2B"/>
</svg>
