<svg width="1200" height="900" viewBox="0 0 1200 900" fill="none" xmlns="http://www.w3.org/2000/svg">
  <rect width="1200" height="900" rx="40" fill="#F7F0E7"/>
  <circle cx="238" cy="184" r="128" fill="#E9D9C7"/>
  <circle cx="972" cy="180" r="98" fill="#B83834" fill-opacity="0.12"/>
  <rect x="124" y="224" width="952" height="516" rx="60" fill="#FFF9F4"/>
  <ellipse cx="600" cy="604" rx="250" ry="94" fill="#EEDFD0"/>
  <circle cx="440" cy="474" r="76" fill="#B02C2C"/>
  <circle cx="600" cy="438" r="94" fill="#C13B36"/>
  <circle cx="760" cy="474" r="76" fill="#B02C2C"/>
  <path d="M342 612C366 550 426 510 490 510C554 510 614 550 638 612V682H342V612Z" fill="#F1E3D4"/>
  <path d="M506 612C536 530 618 486 700 486C782 486 864 530 894 612V682H506V612Z" fill="#EAD8C4"/>
  <path d="M188 790C340 720 536 696 708 714C822 726 916 748 1034 790" stroke="#B02C2C" stroke-width="16" stroke-linecap="round"/>
</svg>
